<?xml version="1.0" encoding="UTF-8" standalone="no"?>
<svg width="200px" height="30px" viewBox="0 0 200 30" version="1.1" xmlns="http://www.w3.org/2000/svg" xmlns:xlink="http://www.w3.org/1999/xlink">
    <!-- Generator: Sketch 3.7 (28169) - http://www.bohemiancoding.com/sketch -->
    <title>Brad Cerasani</title>
    <desc>Created with Sketch.</desc>
    <defs></defs>
    <g id="Page-1" stroke="none" stroke-width="1" fill="none" fill-rule="evenodd">
        <path d="M3.58881884,19.0590671 C3.55397594,9.75601239 7.28216639,4.9128491 11.6026862,4.9128491 C14.8082331,4.9128491 16.8291214,7.5260667 16.8291214,10.9058281 C16.8291214,12.0904868 16.5503782,13.2054596 16.0277346,14.146218 C14.8082331,13.7977889 13.4493599,13.5887315 12.020801,13.5887315 C8.36229633,13.5887315 6.72467997,14.9824476 6.72467997,16.3413208 C6.72467997,17.6305081 8.29261053,18.8500097 11.0103568,18.8500097 C13.4842028,18.8500097 15.5050911,18.0486229 16.8988072,16.5503782 C19.6513964,17.8395655 21.3586986,20.0695112 21.3586986,22.2994569 C21.3586986,25.2262606 18.5015806,27.3865205 13.8326319,27.3865205 C10.4528704,27.3865205 8.04871022,25.9231186 7.97902442,24.5642455 C7.97902442,24.390031 7.97902442,24.1809736 8.08355312,24.0067591 C7.87449571,23.8325445 7.5609096,23.6931729 7.24732349,23.6931729 C6.51562256,23.6931729 5.81876453,24.2506594 5.81876453,25.1914177 C5.81876453,27.3516776 8.88493985,29.686152 13.5190457,29.686152 C19.5120248,29.686152 23.5886442,26.7245054 23.5886442,22.2994569 C23.5886442,19.3726532 21.4980702,16.4806924 18.0834658,14.8779189 C18.6409522,13.762946 18.9545384,12.4040729 18.9545384,10.8361423 C18.9545384,6.55046546 16.2019491,2.68290341 11.6026862,2.68290341 C7.5260667,2.68290341 4.00693366,6.34140805 3.17070403,11.0451997 C3.13586112,7.14279478 2.5783747,6.13235064 1.35887315,6.13235064 C0.731700929,6.13235064 0.313586112,6.48077966 0,7.00342318 C1.39371606,8.88493985 1.14981575,16.3413208 1.39371606,21.6722847 C1.63761637,26.6199767 2.5435318,27.4213634 3.62366174,27.4213634 C4.11146236,27.4213634 4.52957718,27.1774631 4.66894879,26.7593483 C4.11146236,25.783747 3.62366174,22.9266291 3.58881884,19.0590671 L3.58881884,19.0590671 Z M11.7420578,15.4702482 C12.7525019,15.4702482 13.7281031,15.5747769 14.6340186,15.7838343 C13.7977889,16.5503782 12.5086016,16.968493 11.1148855,16.968493 C9.54695498,16.968493 8.74556825,16.5503782 8.74556825,16.2716349 C8.74556825,15.9232059 9.65148368,15.4702482 11.7420578,15.4702482 L11.7420578,15.4702482 Z M27.4213634,16.2019491 C27.1774631,14.9824476 26.7245054,14.3552754 25.8882757,14.3552754 C25.2611035,14.3552754 24.6687742,14.7733902 24.390031,15.2960337 C25.3656322,16.7594356 25.9231186,22.2994569 26.4457622,24.8081458 C26.6548196,25.8534328 26.8987199,26.6896625 27.9788498,26.6896625 C28.4318075,26.6896625 28.8150794,26.515448 29.0589798,26.2367047 C28.6408649,20.487626 31.7767261,13.414517 36.02756,13.414517 C36.3063032,12.717659 36.2017745,11.323943 34.633844,11.323943 C31.811569,11.323943 28.6757078,15.539934 27.9788498,21.184484 C27.8394782,19.2332816 27.6304208,17.3866078 27.4213634,16.2019491 L27.4213634,16.2019491 Z M49.128491,24.8081458 C50.0692493,24.2158165 50.3828354,23.5886442 50.3828354,23.1008436 C50.3828354,22.6827288 50.173778,22.3691427 49.7556632,22.264614 C49.6162916,22.4388285 49.4072342,22.5433572 49.4072342,22.5433572 C49.47692,21.7071276 49.5117629,20.836055 49.5117629,20.0695112 C49.5117629,17.0730217 48.9194335,15.0521334 47.7696178,13.8674748 C46.8637024,12.9615593 45.6442008,12.5434445 44.1111132,12.5434445 C41.1843094,12.5434445 37.4212761,14.1810609 35.8533455,15.9232059 C35.4352307,16.4110066 35.2261733,16.8988072 35.2261733,17.3517649 C35.2261733,17.9440942 35.6094452,18.362209 36.1669316,18.4667377 C37.2122187,16.9336501 40.5919801,14.9127618 43.6233125,14.9127618 C46.271373,14.9127618 47.4560317,16.2019491 47.4560317,20.8012121 C47.4560317,21.567756 47.3863459,22.8917862 47.3166601,23.4841155 C46.4804305,21.2541698 44.1459561,20.0695112 41.8114817,20.0695112 C38.6059347,20.0695112 36.375989,22.0555566 36.375989,24.1461307 C36.375989,26.0624902 37.8393909,27.3865205 40.9404091,27.3865205 C42.5431826,27.3865205 44.7034425,26.8987199 46.4455875,26.2018618 C46.5152734,26.6896625 46.5501163,27.2819918 46.5152734,27.909164 C46.7591737,28.1530643 47.1076027,28.257593 47.4211888,28.257593 C47.9438323,28.257593 48.39679,27.909164 48.6406903,27.0729344 C48.8497477,26.4109193 49.0239623,25.6095325 49.128491,24.8081458 L49.128491,24.8081458 Z M41.2191523,25.2959464 C39.4421644,25.2959464 38.3271915,24.8778316 38.3271915,24.2158165 C38.3271915,23.3447439 39.7557505,22.1600853 42.055382,22.1600853 C43.7278412,22.1600853 45.1564002,22.961472 45.922944,24.390031 C44.3898564,24.9475174 42.7173971,25.2959464 41.2191523,25.2959464 L41.2191523,25.2959464 Z M70.1387605,24.0067591 C68.9541018,23.4144297 67.7346003,21.8464992 66.793842,19.4771819 C68.7102015,15.9580488 69.8948602,11.7420578 69.8948602,7.83965281 C69.8948602,3.06617532 68.535987,0 66.7241562,0 C64.5987392,0 63.1353373,3.41460434 63.1353373,9.65148368 C63.1353373,10.9058281 63.2050231,12.1601726 63.3095518,13.414517 C62.8565941,13.2403025 62.2991077,13.1706167 61.6370926,13.1706167 C56.550029,13.1706167 51.9159231,17.7350368 51.9159231,22.3691427 C51.9159231,25.5050038 53.7625968,27.2819918 56.9681438,27.2819918 C60.0343191,27.2819918 62.9959657,25.2611035 65.2955972,21.9858708 C65.8182407,23.2750581 66.4454129,24.3203452 67.1074281,24.9823603 C67.839129,25.7140612 68.3966154,25.9231186 68.9192589,25.9231186 C69.7903315,25.9231186 70.2781321,25.4004751 70.2781321,24.6687742 C70.2781321,24.4597168 70.2432892,24.2158165 70.1387605,24.0067591 L70.1387605,24.0067591 Z M56.9681438,25.0520461 C54.9820984,25.0520461 53.9716542,24.041602 53.9716542,22.3691427 C53.9716542,19.5468677 57.3862586,15.4702482 61.7764642,15.4702482 C62.4036364,15.4702482 62.9959657,15.539934 63.6231379,15.7141485 C63.8321953,17.1427075 64.1457815,18.5015806 64.4942105,19.7559251 C62.4036364,22.961472 59.6510472,25.0520461 56.9681438,25.0520461 L56.9681438,25.0520461 Z M65.1910685,9.89538399 C65.1910685,5.36580681 66.062141,2.5086889 66.793842,2.5086889 C67.4210142,2.5086889 67.9436577,4.84316329 67.9436577,7.6305954 C67.9436577,10.940671 67.2119568,14.2855896 65.9924552,17.0381788 C65.4698117,15.0172905 65.1910685,12.5782874 65.1910685,9.89538399 L65.1910685,9.89538399 Z M95.9225075,9.12884016 C95.9225075,11.8117436 97.0026375,12.9267164 98.1524532,12.9267164 C99.6158551,12.9267164 100.765671,11.5330004 100.765671,9.12884016 C100.765671,5.85360743 98.8493112,3.55397594 95.2604924,3.55397594 C87.6995828,3.55397594 78.1177849,11.323943 78.1177849,20.5224689 C78.1177849,26.0276473 82.4731476,29.4422517 88.6403411,29.4422517 C97.0026375,29.4422517 103.27436,25.0172032 103.27436,20.7315263 C103.27436,19.8952967 102.856245,19.2332816 102.020015,19.2332816 C101.6019,19.2332816 101.183786,19.442339 100.8702,19.7559251 C101.427686,23.4492726 95.7831359,27.1077773 88.675184,27.1077773 C83.6229633,27.1077773 80.4174164,24.5990884 80.4174164,20.3134115 C80.4522593,12.9615593 88.7100269,5.67939293 95.3301782,5.67939293 C95.748293,5.67939293 96.1315649,5.71423583 96.4799939,5.81876453 C96.096722,6.86405157 95.9225075,8.01386732 95.9225075,9.12884016 L95.9225075,9.12884016 Z M98.7796254,9.44242628 C98.7796254,10.2786559 98.6402538,10.6619278 98.4660393,10.6619278 C98.1524532,10.6619278 97.7343384,9.75601239 97.7343384,8.11839602 C97.7343384,7.66543831 97.7691813,7.17763769 97.87371,6.68983707 C98.4660393,7.31700929 98.7796254,8.25776763 98.7796254,9.44242628 L98.7796254,9.44242628 Z M110.939798,25.2262606 C107.978151,25.2262606 106.723807,24.1461307 106.723807,22.4039856 C106.723807,21.7419705 106.863179,21.0451124 107.141922,20.3134115 C110.417154,20.5573118 115.957176,20.1043541 117.664478,19.4074961 C118.152279,15.6096198 117.002463,12.7873448 113.866602,12.7873448 C110.626212,12.7873448 107.350979,15.2263479 105.67852,18.1879945 C105.330091,18.1183087 105.051348,18.01378 104.877133,17.9092513 C104.528704,18.1183087 104.319647,18.4667377 104.319647,18.8848526 C104.319647,19.2681245 104.493861,19.6513964 104.911976,19.8952967 C104.668076,20.6269976 104.563547,21.3586986 104.563547,22.0903995 C104.563547,25.435318 106.828336,27.4562063 110.974641,27.4562063 C116.549505,27.4562063 120.765496,23.6234871 121.53204,19.8604538 C121.845626,21.5329131 122.089526,23.6234871 122.298584,24.8429887 C122.507641,25.8882757 122.786384,26.6896625 123.866514,26.6896625 C124.284629,26.6896625 124.702744,26.5502909 124.911801,26.2715476 C124.52853,20.5224689 127.664391,13.4493599 131.915225,13.4493599 C132.193968,12.7525019 132.089439,11.3587859 130.521509,11.3587859 C127.734076,11.3587859 124.598215,15.5050911 123.866514,21.1147982 C123.727143,19.2332816 123.483243,17.3866078 123.274185,16.236792 C123.030285,15.0172905 122.577327,14.3901183 121.741097,14.3901183 C121.113925,14.3901183 120.626125,14.7733902 120.347381,15.2960337 C121.462354,20.4527831 116.96762,25.2262606 110.939798,25.2262606 L110.939798,25.2262606 Z M113.622701,14.7037044 C115.016417,14.7037044 115.504218,16.0277346 115.434532,17.8047226 C113.343958,18.2228374 110.417154,18.4318948 108.152366,18.3970519 C109.511239,16.3761637 111.636656,14.7037044 113.622701,14.7037044 L113.622701,14.7037044 Z M145.016156,24.8081458 C145.956914,24.2158165 146.2705,23.5886442 146.2705,23.1008436 C146.2705,22.6827288 146.061443,22.3691427 145.643328,22.264614 C145.503956,22.4388285 145.294899,22.5433572 145.294899,22.5433572 C145.364585,21.7071276 145.399427,20.836055 145.399427,20.0695112 C145.399427,17.0730217 144.807098,15.0521334 143.657282,13.8674748 C142.751367,12.9615593 141.531865,12.5434445 139.998778,12.5434445 C137.071974,12.5434445 133.308941,14.1810609 131.74101,15.9232059 C131.322895,16.4110066 131.113838,16.8988072 131.113838,17.3517649 C131.113838,17.9440942 131.49711,18.362209 132.054596,18.4667377 C133.099883,16.9336501 136.479645,14.9127618 139.510977,14.9127618 C142.159038,14.9127618 143.343696,16.2019491 143.343696,20.8012121 C143.343696,21.567756 143.274011,22.8917862 143.204325,23.4841155 C142.368095,21.2541698 140.033621,20.0695112 137.699146,20.0695112 C134.493599,20.0695112 132.263654,22.0555566 132.263654,24.1461307 C132.263654,26.0624902 133.727056,27.3865205 136.828074,27.3865205 C138.430847,27.3865205 140.591107,26.8987199 142.333252,26.2018618 C142.402938,26.6896625 142.437781,27.2819918 142.402938,27.909164 C142.646838,28.1530643 142.995267,28.257593 143.308853,28.257593 C143.831497,28.257593 144.284455,27.909164 144.528355,27.0729344 C144.737412,26.4109193 144.911627,25.6095325 145.016156,24.8081458 L145.016156,24.8081458 Z M137.106817,25.2959464 C135.329829,25.2959464 134.214856,24.8778316 134.214856,24.2158165 C134.214856,23.3447439 135.643415,22.1600853 137.943047,22.1600853 C139.615506,22.1600853 141.044065,22.961472 141.810609,24.390031 C140.277521,24.9475174 138.605062,25.2959464 137.106817,25.2959464 L137.106817,25.2959464 Z M156.340099,12.8221877 C151.462092,12.8221877 147.699059,15.7141485 147.699059,18.362209 C147.699059,20.2088828 148.918561,21.1496411 153.413295,22.3691427 C156.270413,23.1356865 158.744259,23.7628587 158.744259,24.4597168 C158.744259,25.0172032 157.036957,25.7140612 154.388896,25.7140612 C153.622352,25.7140612 152.472536,25.6443754 151.845364,25.4004751 C151.427249,25.5746896 151.113663,25.9928044 151.113663,26.4806051 C151.113663,27.2819918 151.984736,27.909164 154.144996,27.909164 C158.39583,27.909164 161.148419,26.2018618 161.148419,24.2158165 C161.148419,22.8917862 160.172818,22.0903995 155.190283,20.5921547 C151.009135,19.3378103 150.068376,18.9545384 150.068376,18.0486229 C150.068376,16.8988072 152.437694,15.1566621 156.096198,15.1566621 C158.430673,15.1566621 159.47596,15.8186772 159.47596,16.6897498 C159.650174,16.7942785 159.998603,16.8639643 160.207661,16.8639643 C161.009047,16.8639643 161.566534,16.4458495 161.566534,15.5747769 C161.566534,14.1113751 159.928917,12.8221877 156.340099,12.8221877 L156.340099,12.8221877 Z M176.618667,22.5433572 C176.688353,21.916185 176.723196,20.7663692 176.723196,20.0695112 C176.723196,17.0730217 176.165709,15.0172905 174.981051,13.8674748 C174.075135,12.9615593 172.855634,12.5434445 171.322546,12.5434445 C168.395742,12.5434445 164.667552,14.1810609 163.099621,15.9232059 C162.646664,16.4110066 162.472449,16.8988072 162.472449,17.316922 C162.472449,17.9440942 162.820878,18.362209 163.413208,18.4667377 C164.458495,16.9336501 167.803413,14.9127618 170.834746,14.9127618 C173.482806,14.9127618 174.667465,16.1671062 174.667465,20.8012121 C174.667465,21.567756 174.632622,22.5085143 174.528093,23.4841155 C173.726706,21.2193269 171.392232,20.0695112 169.022915,20.0695112 C165.817368,20.0695112 163.587422,22.0555566 163.587422,24.1461307 C163.587422,26.3063905 165.399253,27.3865205 168.639643,27.3865205 C170.451474,27.3865205 172.193619,27.0032486 173.691863,26.4109193 C173.761549,26.863877 173.761549,27.3516776 173.726706,27.909164 C173.970607,28.1530643 174.319036,28.2227501 174.632622,28.2227501 C175.155265,28.2227501 175.608223,27.8743211 175.852123,27.0729344 C176.026338,26.515448 176.165709,25.8882757 176.305081,25.1217319 C178.047226,23.9719162 179.371256,22.4736714 180.068114,20.836055 C180.1378,22.4736714 180.242329,24.041602 180.486229,24.9823603 C180.904344,26.515448 181.845102,27.1077773 182.646489,27.1077773 C183.273661,27.1077773 183.900834,26.7941912 184.528006,26.2018618 C186.37468,24.3551881 188.291039,19.8604538 189.475698,15.3308766 C189.545384,15.0869763 189.684755,15.0869763 189.719598,15.3657195 C189.998341,17.2472362 190.625513,23.2053723 191.566272,26.132176 C192.01923,27.4910492 192.716088,28.4318075 193.796218,28.4666504 C194.876347,28.5014933 195.538363,27.7697924 195.398991,26.863877 C193.935589,26.4806051 193.064517,22.3691427 192.01923,15.539934 C191.635958,13.1357738 191.008785,12.3343871 189.928655,12.3343871 C188.918211,12.3343871 188.395568,12.9267164 187.907767,14.494647 C186.548894,19.0590671 184.737063,22.8569433 183.482719,24.0764449 C183.273661,24.3203452 183.029761,24.4597168 182.855546,24.4597168 C182.54196,24.4597168 182.332903,23.9370733 182.332903,20.836055 C182.332903,18.8848526 182.437432,16.7245927 182.228374,15.539934 C182.089003,14.4249612 181.531516,13.9023177 180.799815,13.9023177 C180.346858,13.9023177 179.754528,14.2159038 179.475785,14.7385473 C179.684842,15.191505 179.824214,15.7838343 179.824214,16.4110066 C179.824214,18.6757951 178.325969,21.0799553 176.618667,22.5433572 L176.618667,22.5433572 Z M168.639643,25.2611035 C166.897498,25.2611035 165.538624,24.9126745 165.538624,24.2158165 C165.538624,23.3447439 166.967183,22.1600853 169.266815,22.1600853 C170.939274,22.1600853 172.402676,22.961472 173.16922,24.4597168 C171.775504,24.9823603 170.242416,25.2611035 168.639643,25.2611035 L168.639643,25.2611035 Z M198.325795,10.2089701 C198.221266,8.64103954 198.674224,6.93373738 199.47561,5.99297904 C199.371082,5.36580681 198.883281,4.84316329 198.081894,4.84316329 C196.792707,4.84316329 195.921635,6.09750774 195.921635,8.08355312 C195.921635,9.68632659 196.513964,10.5225562 197.419879,10.5225562 C197.733465,10.5225562 198.081894,10.4180275 198.325795,10.2089701 L198.325795,10.2089701 Z M199.998254,25.783747 C198.430323,24.5990884 199.057496,19.2681245 198.709067,15.9232059 C198.534852,14.4249612 198.081894,13.9023177 197.280508,13.9023177 C196.757864,13.9023177 196.304906,14.1810609 196.026163,14.6340186 C196.862393,16.4458495 196.270064,22.2994569 196.688178,24.9475174 C196.966922,26.6548196 197.698622,27.3168347 198.639381,27.3168347 C199.545296,27.3168347 200.033097,26.6548196 199.998254,25.783747 L199.998254,25.783747 Z" id="Brad-Cerasani" fill="#282828"></path>
    </g>
</svg>