<svg viewBox="0 0 512 512" xmlns="http://www.w3.org/2000/svg">
  <path d="M457.941 256l47.029-47.029c9.372-9.373 9.372-24.568 0-33.941-9.373-9.373-24.568-9.373-33.941 0L424 222.059l-47.029-47.029c-9.373-9.373-24.568-9.373-33.941 0-9.372 9.373-9.372 24.568 0 33.941L390.059 256l-47.029 47.029c-9.372 9.373-9.372 24.568 0 33.941 4.686 4.687 10.827 7.03 16.97 7.03s12.284-2.343 16.971-7.029L424 289.941l47.029 47.029c4.687 4.687 10.828 7.03 16.971 7.03s12.284-2.343 16.971-7.029c9.372-9.373 9.372-24.568 0-33.941zM99 160H44c-24.301 0-44 19.699-44 44v104c0 24.301 19.699 44 44 44h55a5 5 0 0 0 5-5V165a5 5 0 0 0-5-5zM280 56h-24a23.999 23.999 0 0 0-14.578 4.935l-103.459 79.116a5 5 0 0 0-1.963 3.972v223.955c0 1.557.726 3.026 1.963 3.972l103.459 79.115a24 24 0 0 0 14.579 4.936H280c13.255 0 24-10.745 24-24V80c0-13.255-10.745-24-24-24z" />
</svg>
