<svg viewBox="0 0 16 16" fill="none" xmlns="http://www.w3.org/2000/svg">
  <style>
    path {
      fill: black;
    }

    @media (prefers-color-scheme: dark) {
      path {
        fill: white;
      }
    }
  </style>
  <path fill-rule="evenodd" clip-rule="evenodd" d="M4.74329 0H0V4.7433C1.30488 4.79555 2.58681 4.41322 3.50001 3.50003C4.41321 2.58682 4.79554 1.30489 4.74329 0ZM16 11.2569V16H11.2569C11.2046 14.6951 11.5868 13.4132 12.5 12.5C13.4132 11.5869 14.6951 11.2046 16 11.2569ZM9.39817 13.0757C7.77581 14.6981 5.21677 14.8129 3.46186 13.4201L13.4201 3.46188C14.8129 5.2168 14.6981 7.77582 13.0757 9.39816C12.3899 10.084 11.5366 10.5004 10.6475 10.6474C10.5005 11.5366 10.084 12.3899 9.39817 13.0757ZM6.6022 2.92465C8.22456 1.30231 10.7836 1.1875 12.5385 2.58026L2.58023 12.5385C1.18746 10.7836 1.30226 8.22458 2.92461 6.60222C3.61049 5.91635 4.46377 5.49992 5.35293 5.35294C5.49992 4.46379 5.91634 3.61052 6.6022 2.92465Z" />
</svg>