<svg viewBox="0 0 385 153" xmlns="http://www.w3.org/2000/svg"><title>Shape</title><path d="M12.03 24.303h360.909c6.641 0 12.03-5.39 12.03-12.03 0-6.641-5.39-12.03-12.03-12.03H12.03C5.389.243 0 5.633 0 12.273s5.39 12.03 12.03 12.03zm360.909 40.152H12.03C5.389 64.455 0 69.845 0 76.485s5.39 12.03 12.03 12.03h360.909c6.641 0 12.03-5.39 12.03-12.03s-5.389-12.03-12.03-12.03zm-240.606 64.212c-6.641 0-12.03 5.39-12.03 12.03 0 6.641 5.39 12.03 12.03 12.03h240.606c6.641 0 12.03-5.39 12.03-12.03 0-6.641-5.389-12.03-12.03-12.03H132.333z" fill-rule="nonzero"/></svg>
